PathFileType	4	(X/Y/Z)	../Python\walking\Walking06\task.trc
DataRate	CameraRate	NumFrames	NumMarkers	Units	OrigDataRate	OrigDataStartFrame	OrigNumFrames
200.000000	200.000000	4	30	mm	200.000000	413	551
Frame#	Time	CLAV			STRN			RASI			RPSI			LPSI			LASI			RTH1			RTH2			RTH3			RTB1			RTB2			RTB3			RD5M			RTOE			LTH1			LTH3			LTB1			LTB2			LTB3			LTOE			LD5M			PE03			T10			PE01			LHEE			PE02			LTH2			C7			RHEE			RBAK			
		X1	Y1	Z1	X2	Y2	Z2	X3	Y3	Z3	X4	Y4	Z4	X5	Y5	Z5	X6	Y6	Z6	X7	Y7	Z7	X8	Y8	Z8	X9	Y9	Z9	X10	Y10	Z10	X11	Y11	Z11	X12	Y12	Z12	X13	Y13	Z13	X14	Y14	Z14	X15	Y15	Z15	X16	Y16	Z16	X17	Y17	Z17	X18	Y18	Z18	X19	Y19	Z19	X20	Y20	Z20	X21	Y21	Z21	X22	Y22	Z22	X23	Y23	Z23	X24	Y24	Z24	X25	Y25	Z25	X26	Y26	Z26	X27	Y27	Z27	X28	Y28	Z28	X29	Y29	Z29	X30	Y30	Z30	

414	2.065	2011.532470703126	1414.736206054688	145.1797485351563	2063.468261718751	1219.796752929688	157.6543273925782	2023.126220703126	1009.810546875	308.9954528808595	1869.268310546876	1054.671752929688	198.0388031005861	1877.983032226563	1049.31787109375	98.34401702880865	2057.368164062501	999.0517578125005	34.00540924072267	1933.137451171876	753.7424926757815	334.2840881347657	1871.840454101563	743.996276855469	330.8257141113282	1880.534423828126	697.271911621094	313.7678833007814	1790.627807617188	368.1976623535157	248.9817504882814	1736.568847656251	338.5257873535157	247.8165435791017	1759.921386718751	295.9536132812501	234.3853759765626	1743.612304687501	20.54693222045899	233.7520141601564	1808.448242187501	30.71981239318849	194.8965911865236	2059.634277343751	693.1314697265627	-10.37043857574463	2111.114013671876	633.4759521484377	-0.8696802258491521	2201.006347656251	363.5059204101564	17.47371482849122	2189.881347656251	316.3337707519532	26.98205757141115	2250.079589843751	301.7348022460939	23.75274658203126	2474.302001953126	115.0457611083985	84.90911865234378	2447.828613281251	80.84269714355472	46.05464172363283	1869.179931640626	1038.4072265625	124.1934127807618	1832.276367187501	1245.062255859375	145.909164428711	1880.933227539063	1099.399780273438	146.2297973632813	2282.804199218751	36.13539505004884	90.55119323730472	1866.692138671876	1041.16455078125	175.0354614257813	2052.600341796876	648.2646484375002	10.47207641601563	1889.924804687501	1498.926147460938	132.9085998535157	1596.589965820313	61.32065582275393	142.242660522461	1880.349609375001	1421.740844726563	313.814910888672	
415	2.07	2018.457275390626	1413.802368164063	144.9044647216797	2070.462646484376	1218.8330078125	157.4313507080079	2030.014404296876	1008.943603515625	309.0018615722657	1876.345703125001	1053.605346679688	197.3903198242189	1885.293823242188	1048.260131835938	97.70776367187506	2064.959228515626	998.0387573242192	33.82738494873048	1938.650512695313	753.316833496094	334.4769287109376	1877.291748046876	743.951843261719	330.5981445312501	1885.794677734376	697.128845214844	313.7046203613282	1793.975341796876	368.5155029296876	248.9795989990236	1739.634033203126	339.3734130859376	247.8191375732423	1762.615600585938	296.5455627441407	234.4486083984376	1743.587158203126	20.49143028259278	233.7924041748048	1808.497070312501	30.66946983337404	194.9545440673829	2065.041992187501	691.5357666015627	-10.79232215881348	2116.159179687501	631.6165161132815	-1.394134998321534	2209.432617187501	362.5948181152345	16.8840503692627	2199.010742187501	315.4368286132814	25.95615005493165	2259.461914062501	301.7092285156251	23.58398818969727	2485.589843750001	117.4134597778321	85.47953796386722	2459.735839843751	82.62599945068362	46.61396408081056	1876.438110351563	1037.375	123.5497207641602	1839.221679687501	1244.036743164063	145.4718627929688	1888.064331054688	1098.379638671875	145.6130065917969	2294.933105468751	36.09689331054689	90.61442565917972	1873.859619140626	1040.119262695313	174.382308959961	2057.807617187501	646.7600708007815	10.30060482025147	1896.727294921876	1497.919311523438	132.5601654052735	1597.114379882813	63.45843124389651	142.4513702392579	1887.070556640626	1420.642456054688	313.4873962402345	
416	2.075	2025.409179687501	1412.906616210938	144.6110534667969	2077.514160156251	1217.917114257813	157.1975250244141	2037.006103515626	1008.084716796875	308.9962768554689	1883.513305664063	1052.56787109375	196.7674255371095	1892.660644531251	1047.243774414063	97.09707641601568	2072.588867187501	997.0687866210942	33.62810134887697	1944.254638671876	752.917663574219	334.6589965820314	1882.839965820313	743.9378662109377	330.353485107422	1891.152587890626	697.0117187500002	313.6351318359376	1797.408569335938	368.8679809570314	249.0019531250001	1742.786010742188	340.2663574218751	247.8532867431642	1765.385620117188	297.1822509765626	234.5461273193361	1743.578613281251	20.43525123596192	233.8457031250001	1808.554077148438	30.62169265747072	195.0147705078126	2070.782226562501	690.1955566406252	-11.2239351272583	2121.578125000001	630.0735473632815	-1.88650679588318	2217.553955078126	361.7105407714845	16.34711647033692	2207.696533203126	314.5788574218751	25.10023498535158	2268.337402343751	301.5728759765626	23.43274688720704	2495.980224609376	119.2306900024415	85.8337326049805	2470.622314453126	83.90010833740237	47.02500534057619	1883.763916015626	1036.383178710938	122.9292144775391	1846.231567382813	1243.019653320313	145.0223388671876	1895.272338867188	1097.395385742188	145.0266265869141	2306.013183593751	35.96196365356447	90.7859802246094	1881.109130859376	1039.10595703125	173.753890991211	2063.353271484376	645.485290527344	10.03457736968994	1903.547607421876	1496.931396484375	132.1897125244141	1597.685668945313	65.70514678955081	142.7187652587891	1893.807983398438	1419.564331054688	313.1313476562501	
417	2.08	2032.388183593751	1412.052490234375	144.2994842529297	2084.624755859376	1217.053466796875	156.9519500732422	2044.107177734376	1007.232666015625	308.9739074707032	1890.775512695313	1051.563842773438	196.1726837158204	1900.086303710938	1046.273803710938	96.51435089111334	2080.259765625001	996.1477050781255	33.40330886840822	1949.958496093751	752.5426025390627	334.8244628906251	1888.494262695313	743.9508056640627	330.0902709960939	1896.616577148438	696.917907714844	313.5557250976564	1800.930175781251	369.2537536621095	249.0492095947267	1746.027587890626	341.2032165527345	247.9161071777345	1768.233886718751	297.8626708984376	234.6759185791017	1743.586791992188	20.38224983215333	233.9105377197267	1808.620117187501	30.57701873779298	195.0779876708986	2076.889648437501	689.1177368164065	-11.665922164917	2127.419433593751	628.8594970703127	-2.356302022933961	2225.343994140626	360.8333740234376	15.87513446807862	2215.905273437501	313.7319946289064	24.45274543762208	2276.674072265626	301.2797851562501	23.27904510498048	2505.462402343751	120.434669494629	85.95179748535159	2480.465576171876	84.61027526855472	47.26895904541017	1891.160644531251	1035.436279296875	122.334083557129	1853.308227539063	1242.0126953125	144.5623168945313	1902.560668945313	1096.451782226563	144.4732818603516	2316.016601562501	35.69441986083986	91.04962921142581	1888.444580078126	1038.129150390625	173.152572631836	2069.283691406251	644.449401855469	9.679281234741214	1910.385742187501	1495.964721679688	131.7976379394532	1598.308105468751	68.06155395507815	143.0441284179688	1900.562622070313	1418.509643554688	312.7471618652345	
